<svg xmlns="http://www.w3.org/2000/svg" aria-hidden="true" style="position:absolute;width:0;height:0;overflow:hidden">
    <defs>
        <symbol id="icon-google" viewBox="0 0 32 32">
            <path d="M30.769 13.261H16.14c0 1.521 0 4.564-.009 6.085h8.477c-.325 1.521-1.476 3.651-3.104 4.724-.002-.002-.003.009-.006.008-2.164 1.429-5.019 1.753-7.139 1.327-3.323-.66-5.953-3.07-7.021-6.131.006-.005.011-.047.016-.05-.668-1.899-.668-4.441 0-5.962h-.002c.861-2.796 3.57-5.347 6.898-6.046 2.676-.567 5.696.047 7.917 2.125.295-.289 4.088-3.992 4.372-4.293C18.951-1.824 6.802.594 2.255 9.467h-.002s.002 0-.008.017c-2.249 4.359-2.156 9.495.016 13.645l-.016.012a15.499 15.499 0 0 0 9.863 7.862c4.583 1.202 10.417.38 14.324-3.154l.005.005c3.311-2.982 5.372-8.062 4.33-14.593z"/>
        </symbol>
        <symbol id="icon-linkedin" viewBox="0 0 34 32">
            <path d="M32.502 31.566h-6.054V20.542c0-3.024-1.282-4.711-3.581-4.711-2.502 0-3.986 1.758-3.986 4.711v11.024h-6.054V11.09h6.054v2.303s1.899-3.468 6.179-3.468c4.281 0 7.442 2.719 7.442 8.345v13.297zM3.974 5.989a2.952 2.952 0 1 1 0-5.904 2.952 2.952 0 0 1 0 5.904zM1.022 31.566h5.902V11.892H1.022v19.674z"/>
        </symbol>
        <symbol id="icon-facebook" viewBox="0 0 18 32">
            <path d="M11.982 31.545V17.601h4.516l.738-6.197h-5.253V8.386c0-1.596.043-3.179 2.422-3.179h2.409V.776c0-.067-2.069-.217-4.163-.217-4.372 0-7.11 2.567-7.11 7.282v3.564H.71v6.197h4.831v13.944h6.442z"/>
        </symbol>
        <symbol id="icon-iconNextUp" viewBox="0 0 57 32">
            <path d="M54.243 24.186a3.837 3.837 0 0 1-5.426 5.426L27.838 8.633 6.55 29.921a3.837 3.837 0 0 1-5.426-5.426L24.186 1.433A3.823 3.823 0 0 1 26.956.31c1.4-.6 3.083-.328 4.225.814l23.062 23.062z"/>
        </symbol>
        <symbol id="icon-iconCirlce" viewBox="0 0 34 32">
            <path d="M32.749 15.51c0 8.566-6.944 15.51-15.51 15.51s-15.51-6.944-15.51-15.51C1.729 6.944 8.673 0 17.239 0s15.51 6.944 15.51 15.51z"/>
        </symbol>
        <symbol id="icon-iconNextLeft" viewBox="0 0 19 32">
            <path d="m7.945 15.88 9.81 9.81a3.27 3.27 0 0 1-4.625 4.625L.958 18.143a3.27 3.27 0 0 1 .528-5.054L13.618.957a3.27 3.27 0 0 1 4.625 4.625L7.946 15.879z"/>
        </symbol>
        <symbol id="icon-iconNextRight" viewBox="0 0 19 32">
            <path d="m11.255 15.88-9.81 9.81a3.27 3.27 0 0 0 4.625 4.625l12.172-12.172a3.27 3.27 0 0 0-.528-5.054L5.582.957A3.27 3.27 0 0 0 .957 5.582l10.297 10.297z"/>
        </symbol>
        <symbol id="icon-iconPlay" viewBox="0 0 31 32">
            <path d="M10.353 6.667v18.667l14.235-9.333-14.235-9.333z"/>
        </symbol>
        <symbol id="icon-menu" viewBox="0 0 51 32">
            <path d="M.093 32h48.025v-5.333H.093V32zm0-13.333h48.025v-5.333H.093v5.333zM.093 0v5.333h48.025V0H.093z"/>
        </symbol>
        <symbol id="icon-iconSearch" viewBox="0 0 32 32">
            <path d="M22.222 19.556h-1.404l-.498-.48a11.507 11.507 0 0 0 2.791-7.52C23.111 5.174 17.938 0 11.555 0S-.001 5.173-.001 11.556c0 6.382 5.173 11.556 11.556 11.556 2.862 0 5.493-1.049 7.52-2.791l.48.498v1.404l8.889 8.871 2.649-2.649-8.871-8.889zm-10.666 0c-4.427 0-8-3.573-8-8s3.573-8 8-8 8 3.573 8 8-3.573 8-8 8z"/>
        </symbol>
        <symbol id="icon-flower" viewBox="0 0 16 32">
            <path d="M16.359 9.913V4.957a.992.992 0 0 0-.992-.991h-.992V.993a.992.992 0 0 0-.992-.991c-1.404 0-3.554-.108-6.078 1.404C5.736.939 4.626.993 3.466.993a.992.992 0 0 0-.992.991v1.982h-.992a.992.992 0 0 0-.992.991v4.956c0 4.037 3.034 7.378 6.942 7.867v12.947a.992.992 0 0 0 1.984 0v-3.469h1.487a5.459 5.459 0 0 0 5.454-5.451V20.32a.992.992 0 0 0-.992-.991h-2.479a5.433 5.433 0 0 0-3.471 1.249V17.78a7.926 7.926 0 0 0 6.942-7.867zm-1.984 0c0 1.764-.78 3.357-2.014 4.449.02-.159.031-.321.031-.485a9.87 9.87 0 0 0-2.483-6.553 7.919 7.919 0 0 1 4.467-1.376v3.965zm-1.983-7.929v2.182c-.183.037-.365.08-.546.127a9.89 9.89 0 0 0-2.178-1.828 7.935 7.935 0 0 1 2.724-.481zm-7.933.991c1.97 0 3.883.719 5.371 2.093a9.968 9.968 0 0 0-1.408.883 9.88 9.88 0 0 0-3.964-1.786v-1.19zM2.475 9.913V5.948c4.374 0 7.933 3.557 7.933 7.929 0 1.108-.915 2.01-2.035 1.981-3.484-.086-5.898-2.852-5.898-5.946zm10.413 11.398h1.487v.496a3.474 3.474 0 0 1-3.471 3.469H9.417v-.496a3.474 3.474 0 0 1 3.471-3.469z"/>
        </symbol>

    </defs>
</svg>